 <svg
      width="100%"
      height="100%"
      viewBox="0 0 162 105"
      fill="none"
      xmlns="http://www.w3.org/2000/svg"
    >
      <defs>
        <linearGradient id="BG1" x1="100%" x2="50%" y1="9.946%" y2="50%">
          <stop offset="0%" stopColor={'#1a1a1a'} />
          <stop offset="100%" stopColor={'#4a4a4a'} />
        </linearGradient>
        <linearGradient id="BG2" x1="50%" x2="50%" y1="0%" y2="100%">
          <stop offset="0%" stopColor={'#8a8a8a'} />
          <stop offset="100%" stopColor={'#4a4a4a'} />
        </linearGradient>
        <linearGradient id="BG3" x1="50%" x2="50%" y1="0%" y2="100%">
          <stop offset="0%" stopColor={'#8a8a8a'} />
          <stop offset="100%" stopColor={'#4a4a4a'} />
        </linearGradient>
      </defs>
      <path
        d="M92.4141 97.0078C92.8359 92.9766 93.3516 88.3125 93.9609 83.0156C94.5703 77.7188 95.2266 72.1875 95.9297 66.4219C96.6328 60.6094 97.3359 54.7734 98.0391 48.9141C98.7891 43.0547 99.5156 37.5703 100.219 32.4609C97.7344 37.2422 95.2266 42.0469 92.6953 46.875C90.1641 51.7031 87.75 56.2969 85.4531 60.6562C83.2031 64.9688 81.1172 68.8828 79.1953 72.3984C77.3203 75.9141 75.7969 78.75 74.625 80.9062C73.5469 82.3594 72.4688 83.7422 71.3906 85.0547C70.3125 86.3672 69.2344 87.5156 68.1562 88.5C67.125 89.4844 66.0938 90.2812 65.0625 90.8906C64.0312 91.4531 63.0234 91.7344 62.0391 91.7344C60.7266 91.7344 59.6719 91.4531 58.875 90.8906C58.125 90.3281 57.75 89.4844 57.75 88.3594C57.75 88.125 57.75 87.9141 57.75 87.7266C57.7969 87.4922 57.8672 87.2578 57.9609 87.0234C57.6797 80.3672 57.4688 73.6641 57.3281 66.9141C57.1875 60.1172 57.1172 53.4375 57.1172 46.875C57.1172 45.3281 57.1172 43.7812 57.1172 42.2344C57.1172 40.6875 57.1406 39.1641 57.1875 37.6641C55.3125 41.8828 53.2734 46.2656 51.0703 50.8125C48.8672 55.3594 46.5703 59.8594 44.1797 64.3125C41.7891 68.7188 39.3281 72.9844 36.7969 77.1094C34.2656 81.1875 31.7344 84.9141 29.2031 88.2891C26.6719 91.6172 24.1641 94.4766 21.6797 96.8672C19.2422 99.2109 16.8984 100.852 14.6484 101.789C12.6797 102.586 10.9688 103.148 9.51562 103.477C8.0625 103.852 6.77344 104.039 5.64844 104.039C3.96094 104.039 2.69531 103.688 1.85156 102.984C1.05469 102.328 0.65625 101.508 0.65625 100.523C0.65625 99.3516 1.14844 98.1328 2.13281 96.8672C3.11719 95.6016 4.5 94.6172 6.28125 93.9141C8.4375 93.0703 10.7812 91.2188 13.3125 88.3594C15.8906 85.4531 18.5391 81.9375 21.2578 77.8125C23.9766 73.6875 26.7188 69.0938 29.4844 64.0312C32.25 58.9688 34.9219 53.8359 37.5 48.6328C40.125 43.4297 42.5859 38.3438 44.8828 33.375C47.1797 28.3594 49.2188 23.8359 51 19.8047C52.7812 15.7734 54.2344 12.4219 55.3594 9.75C56.5312 7.03125 57.2578 5.34375 57.5391 4.6875C58.1953 3.23437 59.1094 2.17969 60.2812 1.52344C61.4531 0.867188 62.6484 0.539062 63.8672 0.539062C65.5547 0.539062 66.7266 1.00781 67.3828 1.94531C68.0391 2.83594 68.3672 4.45313 68.3672 6.79688C68.7422 9.75 69.0469 12.5391 69.2812 15.1641C69.5625 17.7422 69.7969 20.4141 69.9844 23.1797C70.1719 25.8984 70.2891 28.8516 70.3359 32.0391C70.4297 35.1797 70.4766 38.8125 70.4766 42.9375C70.4766 45.8906 70.4062 49.1484 70.2656 52.7109C70.1719 56.2734 70.125 60.2578 70.125 64.6641C75.75 54.4453 80.7188 45.4453 85.0312 37.6641C89.3906 29.8359 93.1641 23.2969 96.3516 18.0469C99.5859 12.75 102.305 8.76562 104.508 6.09375C106.711 3.375 108.469 2.01562 109.781 2.01562H110.273C110.414 2.01562 110.555 2.01562 110.695 2.01562C110.836 1.96875 110.977 1.94531 111.117 1.94531C112.242 1.94531 113.133 2.64844 113.789 4.05469C114.445 5.46094 114.773 7.28906 114.773 9.53906C114.586 11.8359 114.305 14.6953 113.93 18.1172C113.555 21.5391 113.109 25.3125 112.594 29.4375C112.125 33.5156 111.609 37.8281 111.047 42.375C110.484 46.9219 109.922 51.4453 109.359 55.9453C108.797 60.3984 108.258 64.7344 107.742 68.9531C107.273 73.1719 106.875 76.9922 106.547 80.4141C106.453 81.0234 106.406 81.6562 106.406 82.3125C106.406 82.9219 106.406 83.5547 106.406 84.2109C106.406 85.4297 106.43 86.6719 106.477 87.9375C106.523 89.1562 106.547 90.375 106.547 91.5938C106.547 93 106.477 94.4297 106.336 95.8828C106.195 97.2891 105.797 98.5781 105.141 99.75C104.531 100.875 103.547 101.789 102.188 102.492C100.828 103.242 98.9531 103.617 96.5625 103.617C95.2969 103.617 94.2891 103.125 93.5391 102.141C92.7891 101.203 92.4141 99.4922 92.4141 97.0078ZM143.672 62.4141C146.531 63.9141 149.086 65.625 151.336 67.5469C153.586 69.4688 155.484 71.5078 157.031 73.6641C158.625 75.7734 159.82 77.9297 160.617 80.1328C161.461 82.3359 161.883 84.4922 161.883 86.6016C161.883 89.2734 161.109 91.6875 159.562 93.8438C158.062 95.9531 156.07 97.7578 153.586 99.2578C151.148 100.711 148.336 101.812 145.148 102.562C142.008 103.359 138.82 103.758 135.586 103.758C133.148 103.758 130.781 103.477 128.484 102.914C126.188 102.398 124.078 101.578 122.156 100.453C120.281 99.3281 118.664 97.8984 117.305 96.1641C115.945 94.3828 114.984 92.2734 114.422 89.8359C114.328 89.4609 114.281 89.1562 114.281 88.9219C114.281 87.6562 114.727 86.5781 115.617 85.6875C116.508 84.75 117.492 84.2812 118.57 84.2812C119.086 84.2812 119.648 84.375 120.258 84.5625C120.914 84.75 121.406 85.1719 121.734 85.8281C122.344 86.9531 123.188 87.9609 124.266 88.8516C125.391 89.7422 126.633 90.5156 127.992 91.1719C129.352 91.7812 130.781 92.2734 132.281 92.6484C133.828 92.9766 135.328 93.1406 136.781 93.1406C138.281 93.1406 139.711 93 141.07 92.7188C142.477 92.4375 143.695 91.9922 144.727 91.3828C145.805 90.7734 146.648 90 147.258 89.0625C147.867 88.125 148.172 86.9766 148.172 85.6172C148.172 83.2266 147.633 81.0234 146.555 79.0078C145.477 76.9922 144.07 75.1406 142.336 73.4531C140.648 71.7188 138.703 70.125 136.5 68.6719C134.344 67.1719 132.188 65.7422 130.031 64.3828C129.797 64.2422 129.445 63.8438 128.977 63.1875C128.508 62.4844 128.273 61.7812 128.273 61.0781C128.273 60.5156 128.414 60.0703 128.695 59.7422C129.445 58.7578 130.312 57.75 131.297 56.7188C132.281 55.6875 133.336 54.75 134.461 53.9062C135.586 53.0156 136.805 52.3125 138.117 51.7969C139.43 51.2344 140.789 50.9531 142.195 50.9531C143.227 50.9531 144.188 51.0938 145.078 51.375C145.969 51.6562 146.719 52.0312 147.328 52.5C147.938 52.9219 148.406 53.4141 148.734 53.9766C149.109 54.4922 149.297 54.9844 149.297 55.4531C149.297 56.1094 149.133 56.7422 148.805 57.3516C148.477 57.9609 148.031 58.5469 147.469 59.1094C146.953 59.6719 146.344 60.2344 145.641 60.7969C144.984 61.3594 144.328 61.8984 143.672 62.4141Z"
        fill="#D8B4FE"
        fillOpacity="0.62"
      />
    </svg>